<svg version="1.1" xmlns="http://www.w3.org/2000/svg" xmlns:xlink="http://www.w3.org/1999/xlink" width="389.51544" height="300.35155" viewBox="0,0,389.51544,300.35155"><g transform="translate(-50.19411,-29.82422)"><g fill-rule="nonzero" stroke="#000000" stroke-linecap="butt" stroke-linejoin="miter" stroke-miterlimit="10" stroke-dasharray="" stroke-dashoffset="0" style="mix-blend-mode: normal"><path d="M226.54979,143.7395c0,0 -133.67074,-50.79488 -74.85561,-98.91634c72.1822,-56.14171 74.85561,98.91634 74.85561,98.91634z" fill="#a7d9c9" stroke-width="5.5"/><path d="M229.2232,146.41292c0,0 2.67341,-147.03781 64.16195,-104.26317c77.52903,50.79488 -64.16195,104.26317 -64.16195,104.26317z" fill="#a7d9c9" stroke-width="5.5"/><path d="M344.18004,210.57487l82.87586,21.38732l-85.54927,16.04049z" fill="#614f4f" stroke-width="5.5"/><path d="M132.98027,322.85829c-98.91634,-10.69366 -109.61,-152.38464 -8.02024,-184.46562c101.58976,-32.08098 261.99464,-24.06073 259.32123,109.61c-2.67341,90.8961 -173.77196,82.87586 -251.30098,74.85561z" fill="#f7a737" stroke-width="5.5"/><path d="M130.30686,322.85829c-96.24293,-10.69366 -106.93659,-149.71122 -8.02024,-181.7922c24.06073,40.10122 50.79488,112.28342 8.02024,181.7922z" fill="#614f4f" stroke-width="5.5"/><path d="M245.26369,326.86841c-16.04049,0 -32.08098,0 -45.44805,0c32.08098,-85.54927 5.34683,-160.40488 -18.7139,-200.5061c13.36707,-2.67341 26.73415,-2.67341 40.10122,-2.67341c64.16195,72.1822 45.44805,152.38464 24.06073,203.17952z" fill="#614f4f" stroke-width="5.5"/><path d="M333.48638,149.23486c32.08098,53.8396 26.73415,110.37118 13.36707,153.44287c-13.36707,8.07594 -32.08098,16.15188 -50.79488,18.84386c29.40756,-83.45138 0,-153.44287 -21.38732,-193.82257c24.06073,2.69198 42.77464,10.76792 58.81512,21.53584z" fill="#614f4f" stroke-width="5.5"/><path d="M62.59984,214.36256c0,-13.4036 11.59015,-24.26936 25.88732,-24.26936c14.29717,0 25.88732,10.86576 25.88732,24.26936c0,13.4036 -11.59015,24.26936 -25.88732,24.26936c-14.29717,0 -25.88732,-10.86576 -25.88732,-24.26936z" fill="#f9f7ff" stroke-width="0"/><path d="M61.94654,214.43801c0,-10.59259 8.81085,-19.17957 19.67957,-19.17957c10.86873,0 19.67957,8.58699 19.67957,19.17957c0,10.59259 -8.81085,19.17957 -19.67957,19.17957c-10.86873,0 -19.67957,-8.58699 -19.67957,-19.17957z" fill="#1f0033" stroke-width="0"/></g></g></svg>
